<svg version="1.0" xmlns="http://www.w3.org/2000/svg"
 width="15" height="15" viewBox="0 0 1280.000000 1280.000000"
 preserveAspectRatio="xMidYMid meet">
<g transform="translate(0.000000,1280.000000) scale(0.100000,-0.100000)"
fill="#000000" stroke="none">
<path d="M3137 9659 l-537 -539 1360 -1360 1360 -1360 -1360 -1360 -1360
-1360 540 -540 540 -540 1360 1360 1360 1360 1360 -1360 1360 -1360 540 540
540 540 -1360 1360 -1360 1360 1360 1360 1360 1360 -540 540 -540 540 -1360
-1360 -1360 -1360 -1360 1360 c-748 748 -1361 1360 -1362 1359 -2 0 -245 -243
-541 -540z"/>
</g>
</svg>
