<svg width="100" height="100" viewBox="0 0 100 100" fill="none" xmlns="http://www.w3.org/2000/svg">
<rect x="1" y="1" width="98" height="98" rx="49" stroke="black" stroke-width="2"/>
<path d="M71.5002 22.5C68.3002 24.9 64.0002 28.8 62.0002 31.1C58.5002 35.2 58.5002 35.2 54.2002 34.1C51.9002 33.4 50.0002 32.3 50.0002 31.6C50.0002 30.8 49.3002 29.7 48.5002 29C47.2002 28 46.6002 28.1 44.9002 29.6C43.0002 31.3 42.9002 31.3 42.4002 29.3C41.7002 26.6 39.2002 25.6 37.3002 27.2C36.2002 28.1 34.8002 28.1 30.9002 27.1C26.4002 25.9 25.7002 26 23.9002 27.5C22.9002 28.5 22.0002 29.9 22.0002 30.6C22.0002 31.3 26.2002 34.2 31.2002 37.1C36.3002 39.9 41.7002 43.4 43.2002 44.8L45.8002 47.2L39.2002 55.1L32.6002 62.9L26.4002 62.3C13.9002 61.1 11.4002 64.2 21.0002 69C25.3002 71.2 27.0002 72.6 27.0002 74C27.0002 75.3 27.7002 76 29.0002 76C30.4002 76 31.8002 77.7 34.0002 82C35.7002 85.3 37.4002 88 37.9002 88C40.4002 88 41.3002 84.7 40.7002 77.7L40.2002 70.4L48.0002 63.8L55.8002 57.2L58.2002 59.8C59.6002 61.3 63.1002 66.7 65.9002 71.8C68.8002 76.8 71.7002 81 72.4002 81C73.1002 81 74.5002 80.1 75.5002 79.1C77.0002 77.3 77.1002 76.6 75.9002 72.1C74.9002 68.2 74.9002 66.8 75.8002 65.7C77.4002 63.8 76.4002 61.3 73.7002 60.6C71.7002 60.1 71.7002 60 73.4002 58.1C74.9002 56.4 75.0002 55.8 74.0002 54.5C73.3002 53.7 72.2002 53 71.4002 53C70.7002 53 69.6002 51.2 69.0002 48.9L67.9002 44.9L74.9002 37.9C81.8002 31 85.6002 24.3 84.8002 20.4C84.6002 19 83.5002 18.4 81.0002 18.2C78.2002 18 76.3002 18.8 71.5002 22.5Z" fill="black"/>
</svg>
