<svg width="100" height="100" viewBox="0 0 100 100" fill="none" xmlns="http://www.w3.org/2000/svg">
<rect x="1" y="1" width="98" height="98" rx="49" stroke="black" stroke-width="2"/>
<path d="M75.8465 18.9524C74.0157 19.9048 69.708 23.4286 66.1542 26.7619L59.6926 32.9524L42.5696 32.0953L25.5542 31.2381L22.3234 34.0953L19.0926 36.9524L32.8773 40.9524C40.5234 43.1429 47.0926 45.3334 47.6311 45.6191C48.1696 46.0953 36.9696 62.9524 33.7388 66.4762C33.6311 66.6667 31.0465 66.1905 28.0311 65.4286C22.8619 64.0953 22.5388 64.0953 20.4926 66.0953C18.0157 68.381 17.6926 69.5238 19.308 69.5238C19.8465 69.5238 22.9696 70.381 26.2003 71.5238C30.8311 73.0476 32.985 74.4762 35.6773 77.7143C37.508 80 39.3388 81.9048 39.7696 81.9048C40.2003 81.9048 41.0619 80.8572 41.8157 79.6191C43.108 77.6191 42.8926 76.9524 40.4157 73.7143C38.908 71.7143 37.6157 69.6191 37.6157 69.0476C37.6157 68.0953 55.9234 51.4286 57.108 51.4286C57.4311 51.4286 61.7388 56.7619 66.6926 63.3334C71.6465 69.9048 75.7388 75.2381 75.8465 75.2381C76.0619 75.2381 77.1388 73.9048 78.3234 72.2857L80.4773 69.2381L77.3542 61.0476C75.6311 56.5714 73.0465 49.6191 71.6465 45.5238L69.0619 38.2857L73.3696 32.6667C80.4773 23.2381 82.2003 20 80.4773 18.4762C79.2926 17.4286 78.5388 17.4286 75.8465 18.9524Z" fill="black"/>
</svg>
