<svg width="100" height="100" viewBox="0 0 100 100" fill="none" xmlns="http://www.w3.org/2000/svg">
<rect x="1" y="1" width="98" height="98" rx="49" stroke="black" stroke-width="2"/>
<path d="M11 44V60L36.8 59.8L62.5 59.5V44V28.5L36.8 28.2L11 28V44Z" fill="black"/>
<path d="M65.6998 32.6C65.2998 33 64.9998 39.8 64.9998 47.7V62H52.8998C42.2998 62 40.8998 62.2 41.3998 63.6C41.6998 64.5 41.9998 65.6 41.9998 66.1C41.9998 66.6 47.7998 67 54.9998 67C67.8998 67 67.9998 67 68.5998 64.6C69.3998 61.4 71.8998 59.2 75.5998 58.4C77.9998 58 79.2998 58.4 81.7998 60.5C83.5998 62 84.9998 64 84.9998 65.1C84.9998 66.6 85.6998 67 88.4998 67H91.9998V59.7L91.8998 52.5L87.7998 50.5C83.3998 48.4 81.6998 45.3 80.1998 36.5L79.4998 32.5L72.8998 32.2C69.2998 32 66.0998 32.2 65.6998 32.6ZM77.9998 41.5C80.7998 48.9 80.7998 49 74.5998 49H68.9998V44V39H72.9998C76.3998 39 77.1998 39.4 77.9998 41.5Z" fill="black"/>
<path d="M73.8999 61.4C70.3999 63.1 69.9999 69.2 73.1999 71.4C76.1999 73.5 78.5999 73.4 80.9999 71C85.8999 66.1 80.0999 58.3 73.8999 61.4ZM78.7999 64.2C81.8999 67.3 77.7999 71.7 74.4999 69C72.5999 67.4 72.5999 66.5 74.5999 64.6C76.4999 62.7 77.1999 62.6 78.7999 64.2Z" fill="black"/>
<path d="M28.5995 63.2C26.4995 66.2 26.5995 67.2 29.0995 70.4C31.7995 73.8 35.4995 73.6 38.3995 69.7C40.2995 67.1 40.2995 66.7 38.8995 64.2C36.8995 60.5 30.8995 59.9 28.5995 63.2ZM36.3995 65.2C37.1995 66.6 37.0995 67.3 35.7995 68.6C32.7995 71.6 28.2995 67.7 30.9995 64.4C32.5995 62.6 34.8995 62.9 36.3995 65.2Z" fill="black"/>
<path d="M11 63.5C11 65.1 16.8 67 21.8 67C23.5 67 25 66.6 25 66.1C25 65.6 25.3 64.5 25.6 63.6C26.1 62.2 25.1 62 18.6 62C12.6 62 11 62.3 11 63.5Z" fill="black"/>
</svg>
