<svg width="100" height="100" viewBox="0 0 100 100" fill="none" xmlns="http://www.w3.org/2000/svg">
<rect x="1" y="1" width="98" height="98" rx="49" stroke="black" stroke-width="2"/>
<path d="M50.4997 13.3962C38.1997 17.2962 29.1997 29.0962 28.7997 41.8962C28.5997 46.9962 28.7997 47.4962 30.8997 47.7962C32.9997 48.0962 33.0997 47.7962 33.0997 42.2962C33.1997 32.3962 38.7997 23.7962 48.3997 18.7962C54.3997 15.6962 65.8997 15.6962 71.6997 18.6962C77.9997 22.0962 81.3997 25.2962 84.5997 31.1962C88.3997 38.1962 88.6997 47.9962 85.1997 55.1962C82.7997 60.0962 76.7997 66.1962 72.4997 68.1962C70.9997 68.8962 70.0997 70.0962 70.0997 71.6962V73.9962L74.8997 71.5962C80.6997 68.6962 86.5997 62.3962 89.3997 56.0962C92.7997 48.8962 92.4997 37.2962 88.7997 29.7962C81.9997 15.8962 65.2997 8.79615 50.4997 13.3962Z" fill="black"/>
<path d="M63.8997 22.9962C62.9997 24.8962 61.4997 29.1962 60.5997 32.4962C59.5997 35.7962 58.1997 39.3962 57.4997 40.4962C55.2997 43.5962 55.7997 45.8962 58.8997 47.0962C60.3997 47.6962 64.3997 49.4962 67.8997 51.0962C74.9997 54.3962 75.0997 54.3962 75.0997 52.6962C75.0997 51.9962 72.5997 49.4962 69.5997 47.1962C63.4997 42.3962 63.3997 41.8962 65.1997 31.4962C65.7997 28.0962 66.0997 23.9962 65.8997 22.3962L65.4997 19.4962L63.8997 22.9962ZM61.8997 43.6962C61.6997 44.6962 60.8997 45.4962 60.0997 45.4962C59.2997 45.4962 58.4997 44.6962 58.2997 43.6962C58.0997 42.4962 58.5997 41.9962 60.0997 41.9962C61.5997 41.9962 62.0997 42.4962 61.8997 43.6962Z" fill="black"/>
<path d="M16.3996 51.5962C15.4996 51.9962 15.0996 54.8962 15.0996 61.0962V69.9962H41.0996C58.9996 69.9962 67.0996 69.6962 67.0996 68.8962C67.0996 68.2962 64.5996 65.1962 61.3996 61.8962C56.8996 57.1962 55.1996 55.9962 52.6996 55.9962C50.3996 55.9962 49.2996 55.3962 48.5996 53.6962C47.5996 51.5962 47.0996 51.4962 32.5996 51.2962C24.3996 51.1962 16.9996 51.3962 16.3996 51.5962ZM57.0996 61.5962C59.2996 63.5962 61.0996 65.5962 61.0996 66.0962C61.0996 66.9962 52.7996 67.3962 51.9996 66.5962C51.4996 65.9962 52.0996 57.9962 52.6996 57.9962C52.8996 57.9962 54.8996 59.5962 57.0996 61.5962Z" fill="black"/>
<path d="M15.3 75.6962C15.6 78.8962 16 79.4962 18.2 79.7962C20.1 79.9962 21 79.4962 21.9 77.5962C24 72.9962 32.6 73.2962 33.8 77.9962C34.3 79.7962 35.2 79.9962 41.2 79.9962C45 79.9962 48.1 79.5962 48.1 78.9962C48.1 77.1962 52.5 73.9962 54.9 73.9962C56.3 73.9962 58.5 75.2962 60.3 77.1962C62.7 79.6962 63.6 80.1962 64.9 79.2962C65.8 78.7962 66.7 76.8962 66.9 75.0962L67.2 71.9962H41.1H15L15.3 75.6962Z" fill="black"/>
<path d="M23.7004 78.0962C21.4004 81.3962 23.7004 85.9962 27.6004 85.9962C30.1004 85.9962 33.1004 83.0962 33.1004 80.6962C33.1004 76.2962 26.3004 74.3962 23.7004 78.0962ZM29.9004 80.7962C30.2004 82.4962 29.7004 82.9962 28.1004 82.9962C25.6004 82.9962 24.3004 80.0962 26.2004 78.8962C28.2004 77.5962 29.6004 78.2962 29.9004 80.7962Z" fill="black"/>
<path d="M51.2003 77.3962C49.1003 79.8962 50.3003 84.2962 53.3003 85.3962C58.3003 87.0962 62.2003 81.1962 58.5003 77.5962C56.6003 75.5962 52.7003 75.4962 51.2003 77.3962ZM56.9003 80.7962C57.2003 82.3962 56.7003 82.9962 55.2003 82.9962C52.6003 82.9962 51.6003 81.2962 53.2003 79.3962C54.8003 77.4962 56.5003 78.0962 56.9003 80.7962Z" fill="black"/>
</svg>
