<svg width="100" height="100" viewBox="0 0 100 100" fill="none" xmlns="http://www.w3.org/2000/svg">
<rect x="1" y="1" width="98" height="98" rx="49" stroke="black" stroke-width="2"/>
<path d="M28.8774 29.713C28.4774 30.013 28.1774 30.913 28.1774 31.713C28.1774 32.613 29.6774 33.013 33.2774 33.013C36.8774 33.013 38.1774 33.413 37.9774 34.213C37.5774 35.213 33.2774 35.613 21.8774 35.813C4.07744 36.113 -0.32256 38.013 16.7774 38.013C26.8774 38.013 27.3774 38.113 26.8774 40.013C26.3774 41.913 26.8774 42.013 34.8774 42.013C41.1774 42.013 43.2774 42.313 42.9774 43.213C42.5774 44.213 38.3774 44.613 27.3774 44.813C18.3774 44.913 12.1774 45.413 12.1774 46.013C12.1774 46.613 15.0774 47.013 18.6774 47.013C24.4774 47.013 25.1774 47.213 25.1774 49.013C25.1774 50.613 25.9774 50.913 31.4774 51.213C41.7774 51.713 38.6774 53.513 26.9774 53.813C16.5774 54.113 12.1774 55.613 19.8774 56.213C22.2774 56.413 23.5774 57.013 23.4774 57.713C23.2774 58.713 28.0774 59.013 45.1774 59.013C57.2774 59.013 67.1774 58.913 67.1774 58.713C67.1774 58.513 68.2774 52.113 69.6774 44.413C71.0774 36.813 72.1774 30.213 72.1774 29.713C72.1774 28.813 29.7774 28.713 28.8774 29.713Z" fill="black"/>
<path d="M73.7775 36.713C73.4775 38.313 72.5775 43.513 71.6775 48.513C70.7775 53.413 69.8775 58.513 69.5775 59.713C69.1775 61.913 68.7775 62.013 57.2775 62.013H45.4775L45.9775 64.513L46.3775 67.013H58.5775L70.6775 66.913L72.6775 63.713C74.0775 61.513 75.8775 60.213 78.5775 59.513C82.0775 58.713 82.5775 58.813 84.7775 61.313C86.0775 62.913 87.1775 64.813 87.1775 65.613C87.1775 66.513 87.8775 67.013 88.9775 66.813C90.2775 66.613 90.6775 65.413 90.8775 61.513C90.9775 58.713 91.4775 54.513 92.0775 52.013C92.9775 48.213 92.7775 46.413 90.9775 40.713L88.7775 34.013H81.5775C74.4775 34.013 74.2775 34.113 73.7775 36.713ZM87.1775 37.213C87.1775 37.413 87.8775 39.613 88.6775 42.213L90.0775 47.013H82.2775H74.4775L75.2775 42.713C75.6775 40.413 76.0775 38.213 76.1775 37.713C76.1775 37.113 87.1775 36.613 87.1775 37.213Z" fill="black"/>
<path d="M22.7775 63.613C21.6775 66.513 22.1775 67.013 26.1775 67.013C29.0775 67.013 30.3775 66.513 31.1775 65.113C32.6775 62.213 32.5775 62.013 27.7775 62.013C24.6775 62.013 23.1775 62.513 22.7775 63.613Z" fill="black"/>
<path d="M34.8774 63.813C31.6774 67.313 33.2774 72.013 37.6774 72.013C40.7774 72.013 43.3774 68.713 42.9774 65.313C42.7774 63.013 42.1774 62.413 39.5774 62.213C37.5774 62.013 35.9774 62.513 34.8774 63.813ZM40.0774 65.413C40.9774 66.513 40.8774 67.213 39.5774 68.513C38.0774 70.013 37.7774 70.013 36.3774 68.613C35.0774 67.413 35.0774 66.813 36.1774 65.613C37.6774 63.613 38.5774 63.613 40.0774 65.413Z" fill="black"/>
<path d="M76.5774 62.813C74.2774 64.313 73.0774 67.913 74.1774 70.013C76.3774 74.213 84.1774 71.313 84.1774 66.413C84.1774 62.813 79.7774 60.713 76.5774 62.813ZM80.9774 66.513C81.3774 68.513 79.4774 70.113 77.4774 69.313C75.8774 68.713 75.7774 66.813 77.3774 65.213C78.9774 63.613 80.5774 64.213 80.9774 66.513Z" fill="black"/>
</svg>
